<?xml version="1.0" standalone="no"?>
<!DOCTYPE svg PUBLIC "-//W3C//DTD SVG 20010904//EN"
 "http://www.w3.org/TR/2001/REC-SVG-20010904/DTD/svg10.dtd">
<svg version="1.0" xmlns="http://www.w3.org/2000/svg"
 width="700.000000pt" height="700.000000pt" viewBox="0 0 700.000000 700.000000"
 preserveAspectRatio="xMidYMid meet">
<metadata>
Created by potrace 1.14, written by Peter Selinger 2001-2017
</metadata>
<g transform="translate(0.000000,700.000000) scale(0.100000,-0.100000)"
fill="#000000" stroke="none">
<path d="M6599 5286 c-2 -2 -29 -6 -59 -10 -76 -8 -125 -15 -194 -26 -32 -5
-61 -9 -65 -8 -3 1 -26 -2 -51 -6 -51 -9 -77 -12 -140 -21 -25 -3 -56 -8 -70
-10 -14 -3 -47 -7 -75 -10 -27 -3 -59 -7 -70 -9 -26 -5 -98 -15 -155 -21 -25
-3 -56 -8 -70 -10 -29 -5 -90 -13 -140 -19 -59 -8 -134 -18 -151 -21 -9 -2
-40 -6 -70 -10 -30 -3 -65 -8 -79 -10 -14 -2 -45 -7 -70 -10 -79 -10 -115 -15
-140 -20 -14 -3 -49 -8 -79 -11 -30 -3 -62 -7 -70 -9 -9 -1 -45 -6 -81 -11
-36 -4 -68 -9 -72 -10 -5 -1 -17 -2 -28 -3 -21 -1 -35 -25 -43 -77 -5 -26 -52
-252 -63 -299 -3 -11 -9 -40 -14 -65 -5 -25 -20 -97 -34 -160 -14 -63 -27
-126 -30 -140 -2 -14 -12 -59 -21 -100 -9 -41 -19 -88 -21 -105 -3 -16 -9 -43
-14 -60 -4 -16 -11 -45 -14 -63 l-6 -34 38 6 c20 3 55 9 77 11 22 3 51 8 65
10 14 3 48 7 75 10 28 4 78 11 113 16 34 5 84 12 110 15 26 3 66 9 90 13 47 9
50 5 32 -59 -5 -19 -12 -49 -14 -66 -3 -16 -35 -167 -71 -335 -37 -167 -68
-313 -70 -324 -59 -277 -87 -414 -91 -430 -3 -11 -7 -31 -10 -45 -2 -14 -11
-54 -19 -90 -44 -201 -166 -770 -171 -805 -3 -16 -9 -43 -14 -59 -6 -16 -10
-40 -10 -52 l0 -24 660 0 c579 0 660 2 661 15 1 8 2 18 3 23 5 17 27 119 31
142 3 14 7 36 10 50 3 14 8 36 11 50 3 14 7 36 10 50 11 55 66 309 79 365 7
33 16 74 19 90 12 56 14 70 31 150 22 106 20 96 45 209 12 54 23 106 25 115 2
9 42 198 90 421 47 223 88 414 91 425 2 11 6 31 9 45 3 14 7 34 9 45 3 11 14
63 25 115 11 52 22 106 25 120 2 14 12 59 21 100 9 41 19 86 21 99 10 51 184
861 199 929 5 19 -4 29 -16 18z"/>
<path d="M1130 5225 c-4 -5 -19 -66 -33 -135 -14 -69 -38 -179 -52 -245 -14
-66 -44 -205 -66 -310 -22 -104 -51 -244 -65 -310 -14 -66 -28 -131 -30 -145
-3 -14 -16 -77 -30 -140 -14 -63 -29 -135 -34 -160 -5 -25 -12 -56 -15 -70 -3
-14 -8 -36 -11 -50 -3 -13 -12 -56 -21 -95 -8 -38 -17 -79 -18 -90 -2 -11 -20
-96 -40 -190 -20 -93 -39 -181 -41 -195 -3 -14 -7 -33 -10 -42 -3 -10 -8 -30
-10 -45 -3 -15 -12 -59 -20 -98 -9 -38 -17 -80 -20 -91 -2 -12 -13 -66 -25
-120 -20 -94 -75 -356 -83 -399 -3 -11 -28 -128 -56 -260 -28 -132 -54 -251
-56 -265 -3 -14 -7 -33 -10 -43 -5 -16 29 -17 657 -15 l663 3 8 30 c4 16 10
44 13 62 3 18 10 54 16 80 6 27 12 55 14 63 8 36 57 267 61 290 3 14 20 95 39
180 37 168 104 480 111 519 3 14 7 28 10 32 3 5 291 8 641 8 349 0 637 2 639
4 2 2 15 59 30 128 14 68 28 133 30 144 2 11 6 31 9 45 2 14 21 104 41 200 20
96 38 187 40 202 3 15 16 77 29 139 13 62 22 116 20 119 -2 4 -290 6 -639 6
l-636 -1 5 30 c2 17 9 48 14 70 5 22 12 51 14 65 3 14 9 43 15 65 5 22 13 51
16 65 l5 26 742 -1 c482 0 743 3 749 10 4 6 13 42 21 80 16 86 14 74 22 110 4
17 9 39 11 50 8 36 76 355 111 519 19 88 35 164 35 170 0 15 -2798 16 -2810 1z"/>
</g>
</svg>
