<?xml version="1.0" encoding="utf-8"?>
<!-- Generator: Adobe Illustrator 26.0.2, SVG Export Plug-In . SVG Version: 6.00 Build 0)  -->
<svg version="1.1" id="Layer_1" xmlns="http://www.w3.org/2000/svg" xmlns:xlink="http://www.w3.org/1999/xlink" x="0px" y="0px"
	 viewBox="0 0 437.6 46.7" style="enable-background:new 0 0 437.6 46.7;" xml:space="preserve">
<style type="text/css">
	.st0{fill:#C90000;}
	.st1{fill:#FFFFFF;}
</style>
<g>
	<path class="st0" d="M0,46L9.6,0.7h36.2l-2.6,12.2H24L23.1,17h16.5L37,29.7H20.5L17,46H0z"/>
	<path class="st0" d="M53.4,46l6.3-29.5l-7.9,1.1l3-14.1L80.2,0l-9.8,46H53.4z"/>
	<path class="st1" d="M78.7,46l26.9-45.3h14l7.8,45.3h-13.8l-1.6-9.6H98.3L92.5,46H78.7z M102,26.9h10.1l-2.2-13.3L102,26.9z"/>
	<path class="st1" d="M151,46.7c-3,0-5.9-0.2-8.5-0.7c-2.6-0.5-4.8-1.2-6.5-2.1l2.3-10.9c1.9,1,4.1,1.8,6.5,2.4
		c2.4,0.6,4.8,0.9,7,0.9c2.3,0,4.1-0.2,5.4-0.6c1.3-0.4,2.1-1.3,2.4-2.7c0-0.2,0.1-0.4,0.1-0.7c0-1.2-0.7-2-2.2-2.6
		c-1.5-0.6-3.6-1.3-6.5-2.3c-3.2-1.1-5.6-2.5-7.2-4.1c-1.6-1.6-2.5-3.7-2.5-6.3c0-0.5,0-1,0.1-1.6c0-0.5,0.1-1.1,0.3-1.7
		c0.9-4.5,3.2-7.8,6.6-10.2c3.5-2.3,8.5-3.5,15.2-3.5c2.5,0,5,0.2,7.6,0.6c2.6,0.4,4.6,0.9,6.1,1.4l-2.3,11c-2-0.9-4-1.5-5.9-1.9
		c-1.9-0.4-3.8-0.6-5.6-0.6c-2.1,0-3.9,0.2-5.4,0.5c-1.5,0.3-2.4,1.2-2.8,2.5c0,0.1-0.1,0.4-0.1,0.6c0,0.9,0.6,1.6,1.8,2
		c1.2,0.5,3.1,1.1,5.8,2c4.1,1.2,6.9,2.7,8.5,4.5c1.6,1.8,2.4,3.9,2.4,6.3c0,0.6,0,1.2-0.1,1.9c-0.1,0.7-0.2,1.3-0.4,2
		c-0.6,2.7-1.7,5.1-3.3,7.2c-1.6,2.1-3.9,3.7-7,4.8C159.9,46.1,155.9,46.7,151,46.7z"/>
	<path class="st1" d="M181.1,46l9.6-45.3h13.2l-3.6,16.9h15.6l3.6-16.9h13.2L223.1,46h-13.2l3.6-16.9h-15.6L194.3,46H181.1z"/>
	<path class="st1" d="M235.1,46l9.6-45.3h24.9c3.9,0,6.8,0.8,8.8,2.5c2,1.7,3,3.9,3,6.9c0,0.5,0,1-0.1,1.5c-0.1,0.5-0.2,1.1-0.2,1.7
		c-0.5,2.3-1.3,4.3-2.5,5.9c-1.2,1.6-2.6,2.9-4.3,3.8c1.5,0.6,2.6,1.4,3.4,2.5c0.8,1.1,1.2,2.5,1.2,4.3c0,0.4,0,0.9-0.1,1.4
		s-0.2,1-0.2,1.5c-0.9,4.3-2.9,7.6-6,9.9c-3.1,2.3-7.1,3.5-11.9,3.5H235.1z M249.7,36.8h9.1c1.8,0,3.2-0.4,4.2-1.1
		c1-0.7,1.7-2,2.1-3.7c0-0.2,0.1-0.5,0.1-0.7c0-0.2,0-0.4,0-0.6c0-1.1-0.4-1.9-1.1-2.4c-0.8-0.5-1.9-0.8-3.6-0.8h-8.9L249.7,36.8z
		 M253.6,18.8h8.6c1.7,0,3-0.4,3.9-1.1c0.9-0.7,1.5-1.8,1.9-3.2c0.1-0.2,0.1-0.5,0.1-0.7c0-0.2,0-0.4,0-0.6c0-1-0.3-1.8-1-2.3
		c-0.7-0.5-1.8-0.8-3.4-0.8h-8.2L253.6,18.8z"/>
	<path class="st1" d="M282.3,46l26.9-45.3h14L331,46h-13.8l-1.6-9.6h-13.8l-5.8,9.6H282.3z M305.6,26.9h10.1l-2.2-13.3L305.6,26.9z"
		/>
	<path class="st1" d="M361.4,46.7c-6.5,0-11.6-1.5-15.4-4.5c-3.7-3-5.6-7.3-5.6-12.8c0-1.8,0.2-3.7,0.6-5.8
		c1.6-7.6,4.8-13.4,9.6-17.5C355.4,2,362.3,0,371.3,0c2.8,0,5.3,0.2,7.3,0.6c2.1,0.4,4.1,1,5.9,1.8l-2.5,11.5
		c-3.6-1.8-7.7-2.7-12.3-2.7c-4.3,0-7.6,1-10.1,2.9c-2.5,1.9-4.2,5.1-5.1,9.4c-0.2,0.8-0.3,1.6-0.4,2.4c-0.1,0.7-0.1,1.4-0.1,2.1
		c0,2.6,0.8,4.5,2.5,5.7c1.7,1.2,4.4,1.8,8.3,1.8c2.2,0,4.5-0.2,6.7-0.6c2.2-0.4,4.5-1.1,6.8-2l-2.5,11.6c-2.2,0.7-4.4,1.3-6.7,1.7
		S364.2,46.7,361.4,46.7z"/>
	<path class="st1" d="M386.1,46l9.6-45.3h13.2l-3.4,16l17.1-16h15l-19.9,18.6L429.2,46h-14.1l-7.3-18.3l-5.8,5.2L399.3,46H386.1z"/>
</g>
</svg>
