<?xml version="1.0" encoding="utf-8"?>
<!-- Generator: Adobe Illustrator 16.0.3, SVG Export Plug-In . SVG Version: 6.00 Build 0)  -->
<!DOCTYPE svg PUBLIC "-//W3C//DTD SVG 1.1//EN" "http://www.w3.org/Graphics/SVG/1.1/DTD/svg11.dtd">
<svg version="1.1" id="Capa_1" xmlns="http://www.w3.org/2000/svg" xmlns:xlink="http://www.w3.org/1999/xlink" x="0px" y="0px"
	 width="62px" height="62px" viewBox="90.308 621.119 62 62" enable-background="new 90.308 621.119 62 62" xml:space="preserve">
<path fill="#FFFFFF" d="M114.329,635.257c-0.123,0.952-0.205,1.946-0.205,2.9c0,12.595,10.138,22.829,22.616,22.829h0.739
	c-3.161,5.594-9.112,9.156-15.68,9.156c-9.974,0-18.101-8.204-18.101-18.271C103.699,644.662,108.009,638.198,114.329,635.257
	 M117.367,631.817c-9.112,2.03-15.926,10.233-15.926,20.054c0,11.352,9.112,20.55,20.359,20.55c9.03,0,16.706-5.966,19.374-14.211
	c-1.437,0.332-2.915,0.497-4.433,0.497c-11.247,0-20.359-9.198-20.359-20.551C116.383,635.961,116.752,633.807,117.367,631.817
	L117.367,631.817z"/>
<g>
	<path fill="none" stroke="#FFFFFF" stroke-width="2" stroke-miterlimit="10" d="M151.308,672.118c0,5.501-4.5,10.001-10,10.001
		h-39.999c-5.5,0-10-4.5-10-10.001V632.12c0-5.501,4.5-10.001,10-10.001h39.999c5.5,0,10,4.5,10,10.001V672.118z"/>
</g>
</svg>
