<?xml version="1.0" encoding="utf-8"?>
<!-- Generator: Adobe Illustrator 16.0.3, SVG Export Plug-In . SVG Version: 6.00 Build 0)  -->
<!DOCTYPE svg PUBLIC "-//W3C//DTD SVG 1.1//EN" "http://www.w3.org/Graphics/SVG/1.1/DTD/svg11.dtd">
<svg version="1.1" id="Capa_1" xmlns="http://www.w3.org/2000/svg" xmlns:xlink="http://www.w3.org/1999/xlink" x="0px" y="0px"
	 width="62px" height="62px" viewBox="90.309 621.119 62 62" enable-background="new 90.309 621.119 62 62" xml:space="preserve">
<g>
	<path fill="none" stroke="#131313" stroke-width="2" stroke-miterlimit="10" d="M151.309,672.118c0,5.501-4.5,10.001-10,10.001h-40
		c-5.5,0-10-4.5-10-10.001V632.12c0-5.501,4.5-10.001,10-10.001h40c5.5,0,10,4.5,10,10.001V672.118z"/>
</g>
<g>
	<path fill="#131313" d="M132.087,652.113c0.004-0.095-0.002-0.183-0.013-0.269c-0.354-5.897-4.822-10.28-10.766-10.512
		c-6.027-0.232-10.562,5.094-10.779,10.779c-0.232,6.026,5.095,10.561,10.779,10.778c5.933,0.229,10.416-4.928,10.765-10.51
		C132.084,652.297,132.091,652.209,132.087,652.113z M121.309,660.09c-4.475,0.172-7.814-3.762-7.977-7.977
		c-0.172-4.474,3.761-7.813,7.977-7.976c4.473-0.174,7.813,3.761,7.975,7.976C129.111,656.59,125.785,659.916,121.309,660.09z"/>
	<path fill="#131313" d="M122.71,637.377v-4.203c0-1.809-2.803-1.809-2.803,0v4.203C119.906,639.184,122.71,639.184,122.71,637.377z
		"/>
	<path fill="#131313" d="M122.71,671.064v-4.201c0-1.81-2.803-1.81-2.803,0v4.201C119.906,672.873,122.71,672.873,122.71,671.064z"
		/>
	<path fill="#131313" d="M106.566,650.719h-4.205c-1.807,0-1.807,2.803,0,2.803h4.205
		C108.373,653.521,108.373,650.719,106.566,650.719L106.566,650.719z"/>
	<path fill="#131313" d="M140.254,650.719h-4.203c-1.808,0-1.808,2.803,0,2.803h4.203
		C142.063,653.521,142.063,650.719,140.254,650.719z"/>
	<path fill="#131313" d="M132.844,642.568c0.99-0.992,1.981-1.982,2.973-2.974c1.279-1.278-0.703-3.262-1.982-1.981
		c-0.991,0.989-1.98,1.981-2.973,2.973C129.583,641.865,131.564,643.848,132.844,642.568z"/>
	<path fill="#131313" d="M108.784,666.627c0.989-0.99,1.979-1.982,2.971-2.971c1.28-1.279-0.703-3.263-1.981-1.982
		c-0.99,0.99-1.98,1.98-2.972,2.971C105.521,665.924,107.504,667.906,108.784,666.627z"/>
	<path fill="#131313" d="M111.756,640.584c-0.99-0.99-1.98-1.98-2.971-2.973c-1.279-1.279-3.262,0.703-1.982,1.981
		c0.99,0.99,1.981,1.982,2.971,2.974C111.053,643.848,113.035,641.863,111.756,640.584z"/>
	<path fill="#131313" d="M135.816,664.643c-0.991-0.987-1.981-1.979-2.971-2.971c-1.279-1.279-3.262,0.703-1.982,1.982
		c0.99,0.989,1.98,1.979,2.971,2.973C135.113,667.906,137.094,665.924,135.816,664.643z"/>
</g>
</svg>
